<svg width="67" height="81" viewBox="0 0 67 81" fill="none" xmlns="http://www.w3.org/2000/svg">
<path d="M1.50195 17.5814C6.29515 16.5292 8.54226 12.7791 13.0049 11.0291C17.0915 9.42651 19.8285 6.03147 24.3258 5.13201C27.5185 4.49347 35.7142 -0.433649 38.4497 3.82155C39.3804 5.26933 38.9593 7.24471 39.9422 8.69938C41.0504 10.3395 41.7965 11.9108 42.7451 13.65C44.9678 17.725 47.089 23.4472 48.3874 27.9195C49.5809 32.0305 52.2859 34.6972 54.1753 38.476C55.7266 41.5786 56.5794 45.1131 58.3615 48.2317C61.1345 53.0845 61.8305 59.5824 65.0594 64.1028C67.4068 67.3891 62.6416 67.7058 60.6184 68.835C56.4767 71.1467 51.7821 73.1437 47.3681 74.8777C42.6006 76.7507 37.6956 78.7967 32.6618 79.7556C30.7317 80.1232 27.8997 80.3166 26.9104 78.5179C24.561 74.2463 22.1029 69.0161 21.1953 64.1756C20.1814 58.7684 18.9358 52.3951 16.9363 47.2852C14.2119 40.3229 9.9336 33.7805 7.72665 26.7182C7.01305 24.4347 2.58515 13.7944 4.81451 12.9584C13.7357 9.61292 21.2829 3.78189 30.9146 2.36548C33.2202 2.02641 37.2153 1.07483 39.5054 2.21987C42.5871 3.76075 43.3403 9.13755 44.6016 11.9755C46.6017 16.4757 47.0881 21.9123 48.3146 26.6818C49.7777 32.3719 52.4025 37.7111 53.884 43.3902C54.783 46.8364 56.3315 50.7493 57.7062 54.1287C58.873 56.997 59.35 60.1963 60.3999 63.0836C61.0343 64.8281 61.408 66.7543 61.0916 68.653C60.7412 70.7556 52.8969 71.7689 51.2995 72.1112C47.272 72.9742 43.1414 74.6204 39.2141 75.8606C37.1296 76.5189 31.9016 77.3447 30.9874 79.1731" stroke="black" stroke-width="2" stroke-linecap="round"/>
<path d="M5.43359 12.9941C5.43359 21.0264 6.95207 29.3585 9.7654 36.9101C11.435 41.3917 13.1304 46.1148 15.0437 50.4879C16.501 53.8189 18.8791 56.6958 20.1399 60.1344C22.0926 65.46 26.9769 75.7336 32.2981 77.862" stroke="black" stroke-width="2" stroke-linecap="round"/>
<path d="M21.4491 24.9342C18.9487 20.871 24.0123 19.6339 26.3998 18.2363C29.1694 19.1595 29.9088 22.7689 30.3312 25.4439C31.1301 30.5037 35.6602 25.1701 35.573 27.264C35.5347 28.1838 34.6879 27.8118 34.3353 28.4288C34.024 28.9736 34.3076 29.9205 34.1169 30.5401C33.7201 31.83 33.2912 33.4052 32.8065 34.6171C32.2995 35.8847 32.7962 37.5716 32.0056 36.874C31.7438 36.6429 29.2944 35.9443 28.8751 35.9276C27.6749 35.8796 22.2613 35.0098 21.4491 34.3259C20.8382 33.8114 19.1704 33.0712 19.9931 32.797C21.3766 32.3358 22.9495 32.1611 24.391 32.001L24.4341 31.9962C25.7779 31.8469 22.1157 26.0175 21.4491 24.9342Z" stroke="black" stroke-width="2" stroke-linecap="round"/>
<path d="M20.5397 22.4598C20.5408 22.4538 20.5419 22.4478 20.5431 22.4418C19.8141 21.5644 19.2521 20.8334 20.7945 19.5113C21.9865 18.4896 23.2334 18.12 24.5803 17.0724C24.9077 16.8178 25.5786 17.6711 26.3374 18.916C27.7305 21.2017 29.4197 24.8073 29.8222 25.2992C31.1784 26.9568 29.1736 28.9523 31.9335 27.4469C32.9015 26.9188 34.2165 26.8411 34.9184 25.9544C35.0879 25.7403 36.0768 24.2123 35.7192 25.0808C34.9559 26.9347 36.1764 28.9255 34.9184 30.6866C33.7935 32.2615 34.4038 35.392 33.4623 36.4381C33.1767 36.7554 21.1568 34.1082 19.8481 33.9628C17.7375 33.7283 22.5324 31.9971 23.4155 31.9971C24.8214 31.9971 24.5469 30.9895 24.0201 30.0213C23.7129 29.4568 23.32 28.9057 23.1242 28.5753C22.2856 27.16 20.2212 24.2116 20.5397 22.4598Z" fill="#C4C4C4"/>
<path d="M27.7109 18.2372C26.1966 19.3061 20.9277 20.326 20.5397 22.4598C20.2212 24.2116 22.2856 27.16 23.1242 28.5753C23.6559 29.4725 25.641 31.9971 23.4155 31.9971C22.5324 31.9971 17.7375 33.7283 19.8481 33.9628C21.1568 34.1082 33.1767 36.7554 33.4623 36.4381C34.4038 35.392 33.7935 32.2615 34.9184 30.6866C36.1764 28.9255 34.9559 26.9347 35.7192 25.0808C36.0768 24.2123 35.0879 25.7403 34.9184 25.9544C34.2165 26.8411 32.9015 26.9188 31.9335 27.4469C29.1736 28.9523 31.1784 26.9568 29.8222 25.2992C29.2006 24.5394 25.5087 16.3503 24.5803 17.0724C23.2334 18.12 21.9865 18.4896 20.7945 19.5113C18.6977 21.3086 20.49 22.0135 21.3042 23.4791C21.8467 24.4556 27.2306 30.0314 23.7795 30.0314" stroke="black" stroke-width="2" stroke-linecap="round"/>
<path d="M44.747 48.0861C44.747 45.0187 39.965 46.442 35.7324 48.2228C34.1653 49.1935 32.6768 50.3231 31.0236 51.2531C27.8636 53.0305 29.8707 54.2048 31.3512 56.5313C32.5728 58.4509 33.9051 60.9134 34.2997 63.0836C34.9814 66.8325 44.7864 60.3226 47.0039 59.5162C51.3052 57.9521 44.747 51.1108 44.747 48.0861Z" fill="#C4C4C4"/>
<path d="M29.6767 50.9982C31.8787 50.107 44.747 43.0542 44.747 48.0861C44.747 51.1108 51.3052 57.9521 47.0039 59.5162C44.7864 60.3226 34.9814 66.8325 34.2997 63.0836C33.9051 60.9134 32.5728 58.4509 31.3512 56.5313C29.8707 54.2048 27.8636 53.0305 31.0236 51.2531C33.5107 49.8541 35.6248 48.0033 38.1947 46.9213C40.5268 45.9393 42.1827 45.2438 44.2374 43.9363C46.3984 42.5611 47.4178 49.9148 48.3872 50.9982C49.5019 52.2441 51.4857 56.0811 51.2993 57.6962C51.1139 59.3037 44.941 61.5306 43.4366 62.2828C41.4972 63.2525 38.7779 63.6324 37.0299 64.9037C33.7203 67.3107 29.0215 54.6381 29.0215 52.3087" stroke="black" stroke-width="2" stroke-linecap="round"/>
<path d="M37.5394 51.6532C26.8902 56.1791 43.4365 63.3118 43.4365 55.075C43.4365 51.6664 43.3955 49.6875 39.3595 49.6875C36.1246 49.6875 35.5737 50.5883 35.5737 53.7645C35.5737 54.81 35.1178 57.4144 35.865 58.2055C36.8534 59.2521 40.8197 59.3588 41.9804 58.5695C43.6384 57.4421 43.2866 51.3484 41.4708 50.4883C34.9191 47.3849 30.7492 57.5503 36.8842 57.5503" stroke="black" stroke-width="2" stroke-linecap="round"/>
<path d="M38.1953 50.3438C38.8815 53.4696 40.7427 55.2913 41.4715 58.2065" stroke="black" stroke-width="2" stroke-linecap="round"/>
<path d="M36.8848 56.8962C38.8471 55.511 41.3254 53.8095 43.4371 52.9648" stroke="black" stroke-width="2" stroke-linecap="round"/>
<path d="M40.1609 50.998C38.9689 53.4317 38.7578 55.3059 38.0496 57.696C37.7556 58.6884 37.7317 59.7478 36.8848 60.1713" stroke="black" stroke-width="2" stroke-linecap="round"/>
<path d="M34.2637 53.6191C36.3807 53.6623 38.537 53.7504 40.4884 54.6748C41.9149 55.3505 42.4213 56.2401 44.0921 56.2401" stroke="black" stroke-width="2" stroke-linecap="round"/>
<path d="M40.1604 58.8619C40.8804 60.8948 42.1261 64.2784 42.1261 60.4999C42.1261 60.0805 42.1261 57.0434 42.1261 58.5706C42.1261 60.1993 40.9006 59.8932 40.0148 59.0075C39.2343 58.2269 41.7105 60.5598 42.7813 60.8276" stroke="black" stroke-width="2" stroke-linecap="round"/>
<path d="M27.2199 41.4152C28.4215 41.2379 29.4236 40.6986 30.5234 40.2049C31.5558 39.7413 32.6365 39.3674 33.6539 38.8762C34.3597 38.5355 35.0264 38.362 35.7698 38.1709C36.4829 37.9875 37.2324 37.5905 37.7218 37.0379C37.9565 36.7729 40.0788 35.5607 40.0788 36.5829C40.0788 36.8743 40.0892 37.1448 40.32 37.3564C40.7239 37.7266 40.1829 37.9675 39.8695 38.039C38.6615 38.3145 37.4544 38.8228 36.2657 39.1856C35.8016 39.3273 35.3702 39.5434 34.9098 39.6907C34.3496 39.8699 33.8084 40.1457 33.249 40.3004C32.3089 40.5604 31.5012 41.1692 30.6371 41.6109C30.0957 41.8876 29.4688 42.1589 28.8944 42.3617C28.3059 42.5694 27.4328 43.1577 27.179 42.1933C27.1291 42.0038 27.2175 41.6371 27.0971 41.4926C26.7528 41.0794 27.2231 41.1695 27.5475 41.1695" stroke="black" stroke-width="2" stroke-linecap="round"/>
</svg>
