<?xml version="1.0" encoding="iso-8859-1"?>
<!-- Generator: Adobe Illustrator 19.0.1, SVG Export Plug-In . SVG Version: 6.00 Build 0)  -->
<svg version="1.1" xmlns="http://www.w3.org/2000/svg" xmlns:xlink="http://www.w3.org/1999/xlink" x="0px" y="0px"
	 viewBox="0 0 128 128" style="enable-background:new 0 0 128 128;" xml:space="preserve">
<g id="background" style="display:none;">
	<rect id="bg" x="-186" y="-161" style="display:inline;fill:#ECF0F1;" width="500" height="450"/>
</g>
<g id="Bicycle">
	<g id="row3">
		<path id="icon:3_5_" style="display:none;fill:#333333;" d="M97.03,52.775c-2.95,0-5.75,0.59-8.31,1.66
			c-1.28-3.23-2.14-6.09-2.14-7.91v-13.02l-11.72-1.71l-0.43,2.97l9.15,1.33v5.28l-29.06,16l-5.18-12.8c1.86-0.8,1.85-0.79,3.5-1.76
			c3.37-1.96,4.67-4.88,1.55-4.07c-3.41,0.88-8.3,3.24-14.26,3.51c-5.26,0.24,1.98,4.66,6.44,3.46l5.3,13.12l-3.92,2.16
			c-3.97-5.01-10.11-8.22-16.98-8.22c-11.98,0-21.72,9.74-21.72,21.71c0,11.98,9.74,21.72,21.72,21.72
			c11.47,0,20.89-8.94,21.65-20.22h1.41c0.63,3.28,3.33,5.84,6.68,6.26v4.1h-3.27v2h9.06v-2h-3.79v-4.1
			c3.85-0.49,6.83-3.78,6.83-7.76c0-2.14-0.86-4.06-2.25-5.48l16.64-19.72c0.41,1.9,1.17,4.14,2.11,6.49
			c-6.41,3.77-10.72,10.75-10.72,18.71c0,11.98,9.74,21.72,21.71,21.72c11.98,0,21.72-9.74,21.72-21.72
			C118.75,62.515,109.01,52.775,97.03,52.775z M30.97,92.205c-9.77,0-17.72-7.95-17.72-17.72c0-9.76,7.95-17.71,17.72-17.71
			c5.36,0,10.18,2.4,13.42,6.18l-14.68,9.08c-1.08,0.58-1.61,1.77-1.31,2.96c0.3,1.19,1.33,1.99,2.56,1.99l17.65-1
			C47.85,85.055,40.23,92.205,30.97,92.205z M32.38,73.985l13.78-8.59c1.36,2.26,2.22,4.84,2.45,7.59L32.38,73.985z M54.03,72.985
			h-1.41c-0.23-3.45-1.28-6.68-2.95-9.51l3.34-1.84l3.02,7.47C55.03,70.165,54.31,71.505,54.03,72.985z M62.71,79.205v-4.72h-2v4.72
			c-2.18-0.46-3.83-2.39-3.83-4.72c0-2.66,2.17-4.82,4.83-4.82c2.67,0,4.83,2.16,4.83,4.82C66.54,76.815,64.9,78.745,62.71,79.205z
			 M83.58,45.045L64.8,67.305c-0.95-0.41-1.99-0.64-3.09-0.64c-1.12,0-2.19,0.24-3.16,0.67l-2.9-7.16l27.93-15.37V45.045z
			 M95.204,92.113c-8.312-0.836-15.01-7.586-15.802-15.903c-0.668-7.014,2.788-13.303,8.218-16.715
			c2.679,5.976,6.959,13.547,8.399,16.365c0.386,0.756,1.327,1.032,2.061,0.604l0,0c0.687-0.401,0.938-1.269,0.561-1.969
			c-1.937-3.602-5.959-11.037-8.36-16.38c2.885-1.193,6.155-1.655,9.569-1.119c7.571,1.189,13.618,7.283,14.712,14.868
			C116.226,83.411,106.668,93.266,95.204,92.113z"/>
		<path id="icon:2_6_" style="fill:#333333;" d="M11.194,75.999c0.601,10.794,9.509,19.57,20.31,20.022
			C40.92,96.415,49.068,90.635,52.24,82.4l6.68,0.88l0.03,0.01c0.74,0.19,1.51,0.29,2.3,0.29c0.77,0,1.52-0.1,2.24-0.28l1.31,3.45
			h-1.88v2h7v-2h-2.97l-1.59-4.17c2.9-1.49,4.89-4.52,4.89-8c0-1.83-0.55-3.54-1.5-4.97L87.2,52.24l0.82,2.7
			c-7.98,3.05-13.67,10.8-13.67,19.85c0,12.102,10.161,21.869,22.392,21.219c10.711-0.569,19.488-9.337,20.067-20.047
			c0.662-12.239-9.109-22.423-21.218-22.423c-1.62,0-3.19,0.18-4.7,0.53l-1.25-4.13l-1.88-6.23L84.2,31.96H72.82v3h9.15l2.65,8.75
			H49.33l-2.2-5.33h10.68v-1.113c0-1.06-0.826-1.935-1.884-1.997l-13.24-0.768c-1.148-0.067-2.116,0.847-2.116,1.997v1.881h4.4
			l2.68,6.51l-6.09,10.73c-2.77-1.34-5.87-2.08-9.15-2.08C20.289,53.54,10.511,63.744,11.194,75.999z M88.89,57.82l5.27,17.41
			l2.87-0.87l-5.27-17.41c1.23-0.27,2.52-0.41,3.83-0.41c10.06,0,18.25,8.19,18.25,18.25s-8.19,18.25-18.25,18.25
			s-18.24-8.19-18.24-18.25C77.35,67.1,82.14,60.49,88.89,57.82z M42.68,59.72c2.77,1.89,5,4.53,6.38,7.63l-11.68,1.7L42.68,59.72z
			 M66.69,67.42c-1.51-1.16-3.4-1.84-5.44-1.84c-0.86,0-1.69,0.12-2.48,0.35h-0.01c-0.09,0.02-0.17,0.05-0.26,0.09l-0.02-0.05
			l-7.92-19.26h34.97l0.7,2.32L66.69,67.42z M54.25,74.58c0-3.13,2.06-5.78,4.9-6.68l0.02-0.01c0.66-0.2,1.36-0.31,2.08-0.31h0.07
			c3.83,0.04,6.93,3.17,6.93,7c0,2.63-1.45,4.92-3.6,6.12l-2.46-6.48l-1.87,0.72l2.45,6.47c-0.48,0.11-0.96,0.17-1.47,0.17h-0.05
			c-0.63,0-1.24-0.09-1.81-0.24l-0.03-0.01C56.44,80.52,54.25,77.8,54.25,74.58z M52.87,80.47c0.17-0.57,0.3-1.14,0.41-1.73
			c0.37,0.72,0.84,1.38,1.39,1.97L52.87,80.47z M52.79,68.83l1.77-0.26c-0.53,0.59-0.98,1.24-1.34,1.95
			C53.1,69.95,52.96,69.38,52.79,68.83z M52.13,66.9c-1.61-4.02-4.41-7.43-7.97-9.8l4.94-8.69l7.34,17.86L52.13,66.9z M49.87,80.08
			L36,78.25c0.88-0.89,1.41-2.11,1.41-3.46c0-1.32-0.51-2.51-1.35-3.4l0.07-0.13l13.66-2c0.56,1.75,0.86,3.6,0.86,5.53
			C50.65,76.63,50.38,78.41,49.87,80.08z M14.16,74.79c0-10.06,8.19-18.25,18.25-18.25c2.74,0,5.34,0.61,7.67,1.7L33.63,69.6
			l-1.22,0.19l-0.09,0.01h-0.06c-2.69,0.07-4.85,2.28-4.85,4.99c0,2.72,2.17,4.93,4.87,4.99h0.03l0.1,0.01L49.17,82
			c-2.8,6.49-9.26,11.04-16.76,11.04C22.35,93.04,14.16,84.85,14.16,74.79z M32.41,77.79c-1.66,0-3-1.34-3-3c0-1.65,1.34-3,3-3
			c1.65,0,3,1.35,3,3C35.41,76.45,34.06,77.79,32.41,77.79z"/>
		<g id="icon:1" style="display:none;">
			<path style="display:inline;fill:#333333;" d="M97.396,93.202l-0.399-0.02l0.699-14.405L94.35,92.806l-0.389-0.094l3.372-14.137
				l-6.057,13.211l-0.363-0.166l6.072-13.247l-8.578,11.781l-0.323-0.236l8.648-11.878l-10.956,9.791l-0.267-0.299l10.837-9.684
				l-12.513,7.392l-0.203-0.344l11.797-6.97l-12.77,4.98l-0.146-0.373l13.703-5.344l-14.444,2.808l-0.076-0.393l14.422-2.804
				l-14.689-0.295l0.008-0.4l14.53,0.292l-14.196-3.111l0.086-0.391l14.235,3.12l-13.334-5.881l0.161-0.365l13.443,5.928
				l-11.894-8.625l0.234-0.324l11.766,8.532l-9.881-10.657l0.293-0.271l9.831,10.602l-7.666-12.258l0.339-0.213L97.11,74.84
				l-5.124-13.643l0.374-0.141l5.167,13.754l-2.155-14.533l0.396-0.059l2.131,14.376l0.705-14.517l0.399,0.02l-0.699,14.405
				l3.346-14.029l0.389,0.094l-3.372,14.137l6.057-13.211l0.363,0.166l-6.072,13.247l8.578-11.781l0.323,0.236L99.267,75.24
				l10.956-9.791l0.267,0.299l-10.837,9.684l12.513-7.392l0.203,0.344L99.88,75.761l13.817-5.389l0.146,0.373l-13.349,5.206
				l13.734-2.67l0.076,0.393l-14.422,2.804l14.689,0.295l-0.008,0.4l-14.53-0.292l14.196,3.111l-0.086,0.391l-14.235-3.12
				l13.334,5.881l-0.161,0.365l-13.443-5.928l11.894,8.625l-0.234,0.324l-11.766-8.532l9.881,10.657l-0.293,0.271L99.29,78.326
				l7.666,12.258l-0.339,0.213L98.89,78.44l5.124,13.643l-0.374,0.141l-5.167-13.754l2.155,14.533l-0.396,0.059l-2.131-14.376
				L97.396,93.202z M29.396,92.202l-0.399-0.02l0.699-14.405L26.35,91.806l-0.389-0.094l3.372-14.137l-6.057,13.211l-0.363-0.166
				l6.072-13.247l-8.578,11.781l-0.323-0.236l8.648-11.878l-10.956,9.791l-0.267-0.299l10.837-9.684l-12.513,7.392l-0.203-0.344
				l11.797-6.97l-12.77,4.98l-0.146-0.373l13.703-5.344l-14.444,2.808l-0.076-0.393l14.422-2.804l-14.689-0.295l0.008-0.4
				l14.53,0.292l-14.196-3.111l0.086-0.391l14.235,3.12l-13.334-5.881l0.161-0.365l13.443,5.928l-11.894-8.625l0.234-0.324
				l11.766,8.532l-9.881-10.657l0.293-0.271l9.831,10.602l-7.666-12.258l0.339-0.213L29.11,73.84l-5.124-13.643l0.374-0.141
				l5.167,13.754l-2.155-14.533l0.396-0.059l2.131,14.376l0.705-14.517l0.399,0.02l-0.699,14.405l3.346-14.029l0.389,0.094
				l-3.372,14.137l6.057-13.211l0.363,0.166l-6.072,13.247l8.578-11.781l0.323,0.236L31.267,74.24l10.956-9.791l0.267,0.299
				l-10.837,9.684l12.513-7.392l0.203,0.344L31.88,74.761l13.817-5.389l0.146,0.373l-13.349,5.206l13.734-2.67l0.076,0.393
				l-14.422,2.804l14.689,0.295l-0.008,0.4l-14.53-0.292l14.196,3.111l-0.086,0.391l-14.235-3.12l13.334,5.881l-0.161,0.365
				l-13.443-5.928l11.894,8.625l-0.234,0.324l-11.766-8.532l9.881,10.657l-0.293,0.271L31.29,77.326l7.666,12.258l-0.339,0.213
				L30.89,77.44l5.124,13.643l-0.374,0.141l-5.167-13.754l2.155,14.533l-0.396,0.059l-2.131-14.376L29.396,92.202z"/>
			<path style="display:inline;fill:#333333;" d="M98,55.14c-2.34,0-4.59,0.38-6.7,1.08l-5.09-13.67H86.2l-0.06-0.18l-0.01-0.02
				l-1.09-2.7l7.94-0.75l-4.13-4.68c0.55-0.45,0.9-1.14,0.9-1.9c0-1.36-1.1-2.46-2.46-2.46c-1.36,0-2.46,1.1-2.46,2.46
				c0,1.11,0.74,2.05,1.75,2.36l2.3,2.6l-6.62,0.63l1.58,5.23v0.31H46.71l-0.76-2.35c1.16-0.27,2.31-0.45,3.05-0.29
				c2,0.41,6-1.17,3.83-2.59c-2.16-1.41-3.29-1.24-8.83-1.66c-7.09-0.54-10.35,1.41-8.17,3.66C38,42.47,42,42.35,42,42.35
				s0.81-0.32,1.91-0.67l1.54,3.75l-6.03,10.89c-2.85-1.4-6.05-2.18-9.42-2.18c-11.85,0-21.5,9.64-21.5,21.5s9.65,21.5,21.5,21.5
				c10.07,0,18.56-6.97,20.87-16.34l4.75,0.77c0.01-0.61,0.08-1.19,0.22-1.76l-4.64-0.62c0.2-1.15,0.3-2.34,0.3-3.55
				c0-8.07-4.47-15.11-11.06-18.79l5.4-9.68l11.48,28.87l1.619-1.107L47.26,45.35h37.22l1.34,4.5L67.61,75.14
				c0.49,0.33,0.94,0.7,1.35,1.12l18.12-24.04l2.09,4.82c-7.46,3.37-12.67,10.89-12.67,19.6c0,11.86,9.65,21.5,21.5,21.5
				s21.5-9.64,21.5-21.5S109.85,55.14,98,55.14z M30,94.14c-10.2,0-18.5-8.3-18.5-18.5s8.3-18.5,18.5-18.5
				c2.85,0,5.55,0.65,7.96,1.81l-0.67,1.22c-2.17-1.02-4.58-1.58-7.13-1.58c-9.32,0-16.91,7.58-16.91,16.9s7.59,16.9,16.91,16.9
				c7.73,0,14.27-5.22,16.27-12.32l1.47,0.24C45.83,88.26,38.59,94.14,30,94.14z M45.43,79.91c-1.91,6.62-8.04,11.48-15.27,11.48
				c-8.77,0-15.91-7.13-15.91-15.9s7.14-15.9,15.91-15.9c2.37,0,4.62,0.52,6.64,1.46l-8.18,14.77l1.5-0.47l7.69-13.79
				c4.91,2.7,8.25,7.93,8.25,13.93c0,1.02-0.1,2.02-0.28,2.98l-15.66-2.1l-1.97,0.72L45.43,79.91z M48.5,75.64
				c0,1.08-0.09,2.13-0.27,3.15l-1.46-0.19c0.19-1.01,0.29-2.05,0.29-3.11c0-6.37-3.54-11.93-8.76-14.81l0.68-1.21
				C44.66,62.64,48.5,68.7,48.5,75.64z M91.36,62.12l6.23,14.41h1.26l-5.63-15.14c1.55-0.52,3.22-0.8,4.94-0.8
				c8.76,0,15.9,7.13,15.9,15.9s-7.14,15.9-15.9,15.9c-8.77,0-15.91-7.13-15.91-15.9C82.25,70.15,85.98,64.67,91.36,62.12z
				 M98,95.14c-10.2,0-18.5-8.3-18.5-18.5c0-7.48,4.46-13.93,10.86-16.84l0.6,1.4c-5.73,2.71-9.71,8.54-9.71,15.29
				c0,9.32,7.59,16.9,16.91,16.9c9.32,0,16.9-7.58,16.9-16.9s-7.58-16.9-16.9-16.9c-1.85,0-3.63,0.3-5.3,0.85l-0.52-1.41
				c1.78-0.58,3.69-0.89,5.66-0.89c10.2,0,18.5,8.3,18.5,18.5S108.2,95.14,98,95.14z M70.02,81.64c0-1.74-0.65-3.38-1.86-4.62
				c-0.33-0.35-0.72-0.67-1.15-0.96c-0.8-0.52-1.71-0.86-2.64-0.99v-5.43h2.5v-2h-7v2h2.5v5.42c-0.33,0.05-0.67,0.12-1,0.23
				c-0.55,0.18-1.05,0.41-1.48,0.68c-1.49,0.92-2.58,2.41-2.99,4.1c-0.11,0.48-0.18,0.97-0.18,1.57c0,3.33,2.45,6.09,5.65,6.57v4.93
				h-2.5v2h7v-2h-2.5v-4.93C67.56,87.74,70.02,84.97,70.02,81.64z M62.37,81.64v4.54c-2.09-0.46-3.65-2.32-3.65-4.57
				c0-0.38,0.05-0.73,0.13-1.07c0.28-1.18,1.04-2.22,2.1-2.87c0.3-0.19,0.65-0.35,1.03-0.47c0.46-0.15,0.91-0.21,1.4-0.21
				c0.91,0,1.79,0.25,2.53,0.74c0.3,0.21,0.58,0.43,0.82,0.68c0.83,0.87,1.29,2.01,1.29,3.23c0,2.23-1.56,4.09-3.65,4.54v-4.54
				H62.37z"/>
		</g>
	</g>
	<g id="row2">
		<path id="icon:3" style="display:none;fill:#333333;" d="M77.165,42.508v-10.58l5.47-1.86c0.65,0.15,1.45-0.15,2.03-0.81
			c0.76-0.87,0.87-2.04,0.21-2.61c-0.64-0.58-1.79-0.34-2.57,0.53c-0.3,0.33-0.5,0.71-0.58,1.09l-6.56,2.22v5.44
			c-3.93,0.57-7.49,1.42-10.73,2.52l-0.41-2.37c1.84-0.41,3.69-0.5,4.4-0.52c0.19-0.01,0.3-0.01,0.3-0.01s0.55-0.7,0.45-1.4
			c-0.11-0.69-2.8-0.84-5.69,0c-2.89,0.85-6.83,0.95-10.32,0.35c-3.49-0.59-7.18,1.15-6.33,4.34c0.36,1.37,2.57,1.55,5.17,1.17
			l-0.34,5c-12.31,9.06-16.66,22.49-18.12,32.19c-6.1,0.29-10.96,5.33-10.96,11.49c0,6.34,5.15,11.5,11.5,11.5
			c6.34,0,11.5-5.16,11.5-11.5c0-5.52-3.91-10.14-9.11-11.25c0.51-3.46,1.43-7.41,2.97-11.42c5.89-15.24,17.9-24.35,35.72-27.06
			v3.53c-16.03,0.34-28.95,13.48-28.95,29.58c0,16.32,13.27,29.6,29.59,29.6s29.61-13.28,29.61-29.6
			C105.415,56.198,92.865,43.208,77.165,42.508z M41.585,88.688c0,4.14-3.36,7.5-7.5,7.5c-4.15,0-7.5-3.36-7.5-7.5
			c0-3.79,2.82-6.93,6.46-7.42c-0.16,1.83-0.21,3.42-0.21,4.7c-1.04,0.46-1.75,1.51-1.75,2.72c0,1.66,1.34,3,3,3c1.65,0,3-1.34,3-3
			c0-1.02-0.52-1.92-1.29-2.46c0-1.26,0.06-2.89,0.2-4.78C39.215,82.288,41.585,85.208,41.585,88.688z M53.785,43.548l0.26-3.93
			c2.9-0.65,5.82-1.74,7.05-2.47c0.31-0.18,0.64-0.35,1-0.49l0.45,2.48C59.275,40.378,56.365,41.868,53.785,43.548z M101.005,67.518
			l-21.81,3.71c-0.02-0.13-0.06-0.26-0.12-0.39l20.09-9.24C100.015,63.458,100.635,65.448,101.005,67.518z M98.955,61.138
			l-20.09,9.25c-0.02-0.06-0.06-0.12-0.09-0.17l1.49-1.6l6.56-5.56h1.98v-1.68l6.68-5.67C96.865,57.358,98.035,59.178,98.955,61.138
			z M81.885,63.058l-2.6,3.67l-2.01,2.16l-0.03,0.04l2.6-7.05v1.18H81.885z M82.505,63.058h0.21l-0.87,0.93L82.505,63.058z
			 M83.145,65.528l2.3-2.47h0.61L83.145,65.528z M95.175,55.328l-6.76,5.73h-4.49l6.89-9.73
			C92.415,52.498,93.885,53.838,95.175,55.328z M90.395,51.048l-7.09,10.01h-3.16l4.78-12.91
			C86.875,48.888,88.705,49.858,90.395,51.048z M77.165,46.498c0.17,0.01,0.33,0.02,0.5,0.04l-0.5,6.02V46.498z M77.165,58.638
			l1-12.06c2.18,0.19,4.29,0.67,6.29,1.38l-7.29,19.71V58.638z M75.165,46.478v20.31l-3.41-19.99
			C72.865,46.608,74.005,46.508,75.165,46.478z M71.265,46.878l3.71,21.79c-0.14,0.03-0.27,0.07-0.4,0.12l-9.24-20.07
			C67.205,47.868,69.195,47.248,71.265,46.878z M70.465,80.038l2.7-3.81l1-1.07c0.06,0.03,0.13,0.07,0.2,0.09l-2.3,6.22v-1.43
			H70.465z M69.855,80.038h-0.25l1.05-1.12L69.855,80.038z M64.885,48.928l9.25,20.07c-0.14,0.07-0.27,0.15-0.39,0.24l-14.28-16.85
			C61.105,51.008,62.925,49.848,64.885,48.928z M59.075,52.718l14.28,16.85c-0.09,0.09-0.17,0.18-0.25,0.28l-18.03-12.78
			C56.245,55.468,57.585,54.008,59.075,52.718z M54.795,57.478l18.03,12.78c-0.09,0.12-0.15,0.24-0.2,0.37l-20.73-7.67
			C52.635,61.008,53.615,59.168,54.795,57.478z M51.715,63.428l20.73,7.66c-0.04,0.14-0.07,0.29-0.09,0.44l-22.03-1.81
			C50.525,67.528,50.995,65.428,51.715,63.428z M50.215,72.068c0-0.62,0.02-1.24,0.07-1.85l22.02,1.82v0.03
			c0,0.12,0.01,0.23,0.02,0.34l-21.78,3.71C50.325,74.798,50.215,73.448,50.215,72.068z M50.635,76.618l21.78-3.72
			c0.03,0.14,0.07,0.27,0.12,0.4l-20.08,9.24C51.615,80.678,50.995,78.688,50.635,76.618z M52.675,82.998l20.04-9.23l-2.66,2.85
			l-4.03,3.42h-2.92v2h0.56l-7.53,6.38C54.765,86.778,53.595,84.958,52.675,82.998z M56.465,88.798l7.97-6.76h4.01l-7.63,10.76
			C59.205,91.648,57.745,90.298,56.465,88.798z M61.215,93.088l7.83-11.05h2.81l-5.15,13.95
			C64.745,95.248,62.905,94.268,61.215,93.088z M67.175,96.158l7.66-20.73c0.14,0.04,0.29,0.08,0.44,0.09l-1.82,22.04
			C71.265,97.358,69.165,96.888,67.175,96.158z M75.805,97.668c-0.62,0-1.24-0.02-1.85-0.07l1.82-22.03h0.03
			c0.11,0,0.23-0.01,0.34-0.02l3.72,21.79C78.545,97.558,77.185,97.668,75.805,97.668z M80.355,97.248l-3.71-21.79
			c0.13-0.03,0.26-0.07,0.39-0.12l9.25,20.08C84.415,96.268,82.425,96.888,80.355,97.248z M86.735,95.208l-9.24-20.08
			c0.13-0.07,0.26-0.15,0.38-0.25l14.28,16.87C90.515,93.118,88.695,94.288,86.735,95.208z M92.545,91.408l-14.29-16.85
			c0.09-0.08,0.17-0.17,0.25-0.27l18.04,12.78C95.385,88.668,94.045,90.128,92.545,91.408z M96.835,86.658l-18.04-12.78
			c0.08-0.12,0.14-0.24,0.19-0.37l20.75,7.67C98.995,83.138,98.015,84.978,96.835,86.658z M99.905,80.708l-20.74-7.67
			c0.04-0.14,0.08-0.28,0.09-0.43l22.05,1.81C101.105,76.608,100.635,78.718,99.905,80.708z M79.305,72.098v-0.03
			c0-0.12-0.01-0.23-0.03-0.34l21.81-3.71c0.22,1.32,0.33,2.67,0.33,4.05c0,0.62-0.02,1.24-0.07,1.85L79.305,72.098z"/>
		<path id="icon:2_1_" style="display:none;fill:#333333;" d="M47.63,69.855l-1,0.04l0.04,1l1-0.04L47.63,69.855z M45.63,69.925
			l-1,0.04l0.03,1l1.01-0.04L45.63,69.925z M45.19,81.975l-0.99,0.15l0.16,0.99l0.99-0.15L45.19,81.975z M43.15,82.295l-0.93,0.14
			l0.16,0.99l0.99-0.16L43.15,82.295z M37.27,83.175l-0.99,0.14l0.14,0.99l1-0.14L37.27,83.175z M33.56,78.405l0.02,0.04v-0.04
			H33.56z M32.62,70.335v0.06c0.05,0.01,0.09,0.02,0.13,0.03l0.04-0.1L32.62,70.335z M47.63,69.855l-1,0.04l0.04,1l1-0.04
			L47.63,69.855z M45.63,69.925l-1,0.04l0.03,1l1.01-0.04L45.63,69.925z M45.19,81.975l-0.99,0.15l0.16,0.99l0.99-0.15L45.19,81.975
			z M43.15,82.295l-0.93,0.14l0.16,0.99l0.99-0.16L43.15,82.295z M37.27,83.175l-0.99,0.14l0.14,0.99l1-0.14L37.27,83.175z
			 M33.56,78.405l0.02,0.04v-0.04H33.56z M32.62,70.335v0.06c0.05,0.01,0.09,0.02,0.13,0.03l0.04-0.1L32.62,70.335z M58.24,58.815
			l-0.93,0.39l0.74,2.42l0.96-0.29L58.24,58.815z M59.98,58.085l-0.93,0.39l0.75,2.46l0.96-0.3L59.98,58.085z M61.72,57.365
			l-0.93,0.38l0.76,2.49l0.96-0.3L61.72,57.365z M32.62,70.335v0.06c0.05,0.01,0.09,0.02,0.13,0.03l0.04-0.1L32.62,70.335z
			 M33.56,78.405l0.02,0.04v-0.04H33.56z M37.27,83.175l-0.99,0.14l0.14,0.99l1-0.14L37.27,83.175z M43.15,82.295l-0.93,0.14
			l0.16,0.99l0.99-0.16L43.15,82.295z M45.19,81.975l-0.99,0.15l0.16,0.99l0.99-0.15L45.19,81.975z M45.63,69.925l-1,0.04l0.03,1
			l1.01-0.04L45.63,69.925z M47.63,69.855l-1,0.04l0.04,1l1-0.04L47.63,69.855z M32.62,70.335v0.06c0.05,0.01,0.09,0.02,0.13,0.03
			l0.04-0.1L32.62,70.335z M33.56,78.405l0.02,0.04v-0.04H33.56z M37.27,83.175l-0.99,0.14l0.14,0.99l1-0.14L37.27,83.175z
			 M43.15,82.295l-0.93,0.14l0.16,0.99l0.99-0.16L43.15,82.295z M45.19,81.975l-0.99,0.15l0.16,0.99l0.99-0.15L45.19,81.975z
			 M45.63,69.925l-1,0.04l0.03,1l1.01-0.04L45.63,69.925z M47.63,69.855l-1,0.04l0.04,1l1-0.04L47.63,69.855z M37.27,83.175
			l-0.99,0.14l0.14,0.99l1-0.14L37.27,83.175z M43.15,82.295l-0.93,0.14l0.16,0.99l0.99-0.16L43.15,82.295z M45.19,81.975
			l-0.99,0.15l0.16,0.99l0.99-0.15L45.19,81.975z M55.1,80.435l-1,0.16l0.16,0.99l0.99-0.16L55.1,80.435z M33.56,78.405l0.02,0.04
			v-0.04H33.56z M32.62,70.335v0.06c0.05,0.01,0.09,0.02,0.13,0.03l0.04-0.1L32.62,70.335z M45.63,69.925l-1,0.04l0.03,1l1.01-0.04
			L45.63,69.925z M47.63,69.855l-1,0.04l0.04,1l1-0.04L47.63,69.855z M37.27,83.175l-0.99,0.14l0.14,0.99l1-0.14L37.27,83.175z
			 M43.15,82.295l-0.93,0.14l0.16,0.99l0.99-0.16L43.15,82.295z M45.19,81.975l-0.99,0.15l0.16,0.99l0.99-0.15L45.19,81.975z
			 M45.63,69.925l-1,0.04l0.03,1l1.01-0.04L45.63,69.925z M47.63,69.855l-1,0.04l0.04,1l1-0.04L47.63,69.855z M58.24,58.815
			l-0.93,0.39l0.74,2.42l0.96-0.29L58.24,58.815z M59.98,58.085l-0.93,0.39l0.75,2.46l0.96-0.3L59.98,58.085z M61.72,57.365
			l-0.93,0.38l0.76,2.49l0.96-0.3L61.72,57.365z M47.63,69.855l-1,0.04l0.04,1l1-0.04L47.63,69.855z M44.63,69.965l0.03,1l1.01-0.04
			l-0.04-1L44.63,69.965z M45.19,81.975l-0.99,0.15l0.16,0.99l0.99-0.15L45.19,81.975z M42.22,82.435l0.16,0.99l0.99-0.16
			l-0.22-0.97L42.22,82.435z M37.27,83.175l-0.99,0.14l0.14,0.99l1-0.14L37.27,83.175z M96.34,51.785c-2.97,0-5.8,0.59-8.38,1.65
			l-6.2-14.52l3.72-3.63l2.8-0.29l-0.31-2.98l-3.84,0.4l-4.45,4.34l-1.35,0.77l2.45,4.46l-6.47,9.7l-12.23,1.4l-9.09-2.71
			l-4.32-10.52c0.19-0.06,0.3-0.1,0.3-0.1l7.73-0.29c0,0-1.38-3.09-4.94-2.56c-3.55,0.52-10.89-1.05-11.36,0.4
			c-0.47,1.46,1.52,4.08,3.32,3.85c0.78-0.09,1.87-0.38,2.85-0.66l6.18,16.95l2.12-0.64l-0.42-1.76l7.5,1.45h0.01l1.33,0.21
			l-0.76,0.32l0.77,2.51l0.95-0.3l-0.75-2.43l3.42,0.66l-5.93,11.97c-0.34-0.07-0.7-0.1-1.06-0.1c-0.57,0-1.12,0.08-1.64,0.24
			l-2.42-9.77l-5.38,2.52c-3.89-6.32-10.88-10.54-18.83-10.54c-12.19,0-22.1,9.91-22.1,22.1c0,12.19,9.91,22.1,22.1,22.1
			c9.38,0,17.41-5.87,20.61-14.13l0.01,0.04l0.99-0.16l-0.15-0.99l-0.48,0.08c0.64-1.92,1.02-3.96,1.1-6.07h0.27
			c-0.02,0.18-0.03,0.35-0.03,0.53c0,2.05,1.03,3.85,2.61,4.92l-0.5,0.08l0.15,0.99l0.99-0.16l-0.09-0.57
			c0.34,0.17,0.7,0.32,1.08,0.42c0.54,0.17,1.11,0.26,1.71,0.26c1.47,0,2.82-0.53,3.85-1.42l5.33,4.44l-1.72,1.86l1.47,1.36
			l5.04-5.46l-1.47-1.36l-1.96,2.13l-5.41-4.51c0.52-0.87,0.81-1.89,0.81-2.98c0-1.15-0.33-2.23-0.91-3.14l17.83-23.17l2.79,5.61
			c-6.76,3.78-11.34,11.01-11.34,19.3c0,12.19,9.91,22.1,22.1,22.1s22.1-9.91,22.1-22.1C118.44,61.695,108.53,51.785,96.34,51.785z
			 M23.84,57.565l5.55,13.39c-0.19,0.13-0.37,0.28-0.53,0.44l-10.14-10.14C20.19,59.745,21.92,58.485,23.84,57.565z M18.04,61.995
			l10.18,10.18c-0.12,0.18-0.22,0.36-0.3,0.55l-13.11-5.44C15.57,65.335,16.67,63.545,18.04,61.995z M13.56,73.885
			c0-1.97,0.32-3.87,0.91-5.65l13.17,5.45c-0.04,0.18-0.05,0.37-0.05,0.56H13.57C13.56,74.125,13.56,74.005,13.56,73.885z
			 M13.61,75.245h14.07c0.04,0.17,0.08,0.33,0.14,0.48l-12.79,5.3C14.25,79.235,13.76,77.285,13.61,75.245z M15.46,81.935
			l12.81-5.31c0.09,0.12,0.18,0.25,0.28,0.36l-9.68,9.68C17.48,85.295,16.33,83.695,15.46,81.935z M19.6,87.355l9.69-9.69
			c0.12,0.08,0.24,0.16,0.37,0.23l-5.22,12.59C22.66,89.705,21.02,88.645,19.6,87.355z M31,81.585c-0.03,0.03-0.06,0.05-0.08,0.08
			l-0.49-0.37c-0.26,0.34-0.43,0.74-0.48,1.14l0.56,0.08c-0.02,0.05-0.02,0.11-0.02,0.17c0,0.27,0.07,0.52,0.21,0.73l-0.5,0.31
			c0.18,0.3,0.46,0.55,0.8,0.72v7.53c-1.97-0.07-3.87-0.46-5.63-1.12l5.21-12.58c0.14,0.04,0.28,0.07,0.42,0.09V81.585z M31,70.335
			c-0.25,0.03-0.48,0.09-0.71,0.18l-5.53-13.36c1.93-0.8,4.04-1.28,6.24-1.36V70.335z M48.27,66.685c0.07,0.16,0.13,0.32,0.2,0.49
			l-6.99,2.89l-0.46,0.02L48.27,66.685z M46.83,64.045l-7.37,3.45l5.67-5.67C45.76,62.515,46.33,63.255,46.83,64.045z M40.64,70.265
			v0.15l-0.99,0.41v-0.1L40.64,70.265z M44.44,61.095l-7.66,7.66l-2.8,1.31l5.23-12.62C41.17,58.335,42.94,59.585,44.44,61.095z
			 M38.88,71.145l-1.13,0.47l0.99-0.46L38.88,71.145z M32,55.795c2.22,0.03,4.34,0.48,6.29,1.25l-5.5,13.28l-0.17,0.01v0.06
			c-0.2-0.05-0.41-0.08-0.62-0.1V55.795z M32,91.975v-7.84c0.13-0.01,0.26-0.03,0.38-0.07l-0.03,0.71c0.06,0.01,0.14,0.01,0.21,0.01
			c0.17,0,0.35-0.01,0.55-0.03l0.32-0.04l-0.12-0.99l-0.3,0.03c-0.03,0-0.06,0.01-0.09,0.01c0.3-0.26,0.49-0.65,0.49-1.08
			c0-0.79-0.62-1.43-1.41-1.45v-0.06c0.22-0.21,0.43-0.45,0.63-0.7L32,79.985v-1.58c0.16-0.01,0.3-0.03,0.45-0.06l0.1,0.23
			c-0.03,0.12-0.09,0.3-0.21,0.53l0.54,0.28l1.73,4.17l-0.31,0.04l0.13,1l0.57-0.08l2.67,6.44C35.89,91.585,33.98,91.945,32,91.975z
			 M38.61,90.595l-5.03-12.15v-0.04h-0.02l-0.16-0.38c0.15-0.06,0.29-0.14,0.43-0.24l5.14,5.14l-0.71,0.1l0.15,0.99l0.99-0.15
			l-0.09-0.6l4.24,4.24C42.09,88.795,40.43,89.835,38.61,90.595z M44.29,86.825l-3.21-3.21l0.3-0.04l-0.15-0.99l-0.99,0.15
			l0.01,0.05l-5.63-5.63c0.12-0.13,0.24-0.28,0.35-0.43l12.02,4.98l-0.8,0.12l0.15,0.99l0.99-0.15l-0.13-0.87l0.61,0.25
			C46.91,83.835,45.71,85.445,44.29,86.825z M48.24,81.135l-12.79-5.29c0.08-0.19,0.14-0.39,0.18-0.6h14.08
			C49.55,77.325,49.05,79.315,48.24,81.135z M36.26,73.315l6.39-2.65l0.01,0.36l1-0.03l-0.02-0.74l5.17-2.14
			c0.19,0.55,0.35,1.11,0.48,1.68l-0.66,0.03l0.04,1l0.82-0.03c0.15,0.82,0.23,1.66,0.26,2.52H36.26z M53.67,71.875
			c-0.86-5.55-1.83-6.99-1.83-6.99l1.91-1.01l1.5,6.55L53.67,71.875z M114.43,73.245l-15.92,0.15l14.57-6.39
			C113.88,68.935,114.35,71.045,114.43,73.245z M112.67,66.085l-14.54,6.39l10.86-11.51C110.5,62.435,111.75,64.165,112.67,66.085z
			 M108.25,60.285l-10.83,11.48l5.54-14.72C104.91,57.805,106.7,58.905,108.25,60.285z M96.34,55.785c1.98,0,3.89,0.32,5.68,0.92
			l-5.52,14.68L96,55.795C96.11,55.785,96.23,55.785,96.34,55.785z M87.37,58.175l7.19,13.57l-11-10.65
			C84.69,59.955,85.97,58.975,87.37,58.175z M82.87,61.825l11,10.65l-14.13-5.8C80.52,64.885,81.58,63.255,82.87,61.825z
			 M79.36,67.605l14.13,5.79l-15.24-0.15C78.32,71.265,78.71,69.375,79.36,67.605z M78.25,74.245l15.24,0.15l-14.21,5.53
			C78.64,78.145,78.28,76.235,78.25,74.245z M79.63,80.865v-0.01l14.24-5.54l-11.13,10.48C81.45,84.335,80.4,82.685,79.63,80.865z
			 M83.42,86.535l11.16-10.5l-6.37,14.01C86.42,89.145,84.8,87.955,83.42,86.535z M95,91.935c-2.08-0.15-4.07-0.66-5.89-1.46
			l6.39-14.06L95,91.935z M89.53,57.115c1.71-0.7,3.55-1.14,5.47-1.28l0.5,14.24L89.53,57.115z M96.34,91.985
			c-0.11,0-0.23,0-0.34-0.01l0.5-15.56l5.62,14.62C100.3,91.655,98.36,91.985,96.34,91.985z M103.06,90.685l-5.64-14.65l10.98,11.32
			C106.84,88.765,105.04,89.895,103.06,90.685z M109.13,86.665l-11-11.35l14.65,6.13C111.88,83.405,110.64,85.165,109.13,86.665z
			 M113.18,80.525l-14.67-6.13l15.92-0.15C114.39,76.455,113.95,78.575,113.18,80.525z M46.63,69.895l0.04,1l1-0.04l-0.04-1
			L46.63,69.895z M44.63,69.965l0.03,1l1.01-0.04l-0.04-1L44.63,69.965z M44.2,82.125l0.16,0.99l0.99-0.15l-0.16-0.99L44.2,82.125z
			 M42.22,82.435l0.16,0.99l0.99-0.16l-0.22-0.97L42.22,82.435z M36.28,83.315l0.14,0.99l1-0.14l-0.15-0.99L36.28,83.315z
			 M32.62,70.335v0.06c0.05,0.01,0.09,0.02,0.13,0.03l0.04-0.1L32.62,70.335z M33.56,78.405l0.02,0.04v-0.04H33.56z M37.27,83.175
			l-0.99,0.14l0.14,0.99l1-0.14L37.27,83.175z M43.15,82.295l-0.93,0.14l0.16,0.99l0.99-0.16L43.15,82.295z M45.19,81.975
			l-0.99,0.15l0.16,0.99l0.99-0.15L45.19,81.975z M45.63,69.925l-1,0.04l0.03,1l1.01-0.04L45.63,69.925z M47.63,69.855l-1,0.04
			l0.04,1l1-0.04L47.63,69.855z"/>
		<path id="icon:1_1_" style="display:none;fill:#333333;" d="M96.524,49.686c-2.936,0-5.74,0.578-8.307,1.63L82.97,40.003
			l-0.352,0.193l-0.642-1.279l2.329-1.253c0,0,0,0.009,0.009,0c0.229,0.131,0.492,0.193,0.765,0.193
			c0.932,0,1.688-0.745,1.688-1.674S86.011,34.5,85.079,34.5c-0.791,0-1.459,0.543-1.635,1.279l-2.602,0.903l-0.519-1.034
			l-1.626,0.701c0,0,0.202,0.368,0.492,0.911l-0.844,0.289l1.477,2.524l0.677-0.368c0.264,0.491,0.51,0.938,0.686,1.262v0.009
			L59.904,52.49c-2.215,1.209-5.002,0.298-6.074-1.989l-4.509-8.815c1.424-0.333,3.033-0.666,4.404-0.797
			c3.34-0.324,3.481-1.788,0.519-1.455c-2.971,0.324-11.7,0.044-12.737,0.184c-0.8,0.114,2.031,1.902,3.358,2.716
			c0.404,0.245,0.897,0.315,1.363,0.175c0.378-0.114,0.897-0.254,1.494-0.412l6.32,16.351l0.255,2.734l-2.822,1.341
			c-3.455-7.571-11.12-12.837-19.998-12.837C19.354,49.686,9.5,59.509,9.5,71.593C9.5,83.677,19.354,93.5,31.476,93.5
			c10.953,0,20.051-8.018,21.703-18.472c4.58,0.394,8.105,0.692,8.105,0.692L79.48,46.768l2.927-0.754l3.402,6.458
			c-6.716,3.75-11.26,10.918-11.26,19.12c0,12.084,9.854,21.907,21.976,21.907S118.5,83.677,118.5,71.593
			C118.5,59.509,108.646,49.686,96.524,49.686z M31.476,89.995c-10.179,0-18.46-8.255-18.46-18.402
			c0-10.147,8.28-18.402,18.46-18.402c7.472,0,13.924,4.451,16.816,10.831l-1.187,0.57c-2.681-5.941-8.685-10.086-15.629-10.086
			c-9.45,0-17.141,7.667-17.141,17.087S22.026,88.68,31.476,88.68c8.421,0,15.445-6.09,16.869-14.073
			c0.44,0.044,0.879,0.079,1.319,0.123C48.169,83.388,40.583,89.995,31.476,89.995z M30.166,73.275
			c1.064,0.096,10.566,0.684,17.299,1.262c-1.389,7.536-8.034,13.267-15.99,13.267c-8.966,0-16.262-7.273-16.262-16.211
			s7.296-16.211,16.262-16.211c6.602,0,12.289,3.934,14.829,9.587L29.885,71.9C29.691,71.996,29.639,73.232,30.166,73.275z
			 M34.28,72.11l12.764-5.205c0.448,1.481,0.694,3.058,0.694,4.688c0,0.263-0.009,0.526-0.018,0.789L34.28,72.11z M49.909,72.425
			l-1.319-0.026c0.018-0.263,0.026-0.535,0.026-0.806c0-1.753-0.264-3.435-0.756-5.021l1.222-0.499
			c0.554,1.744,0.853,3.601,0.853,5.521C49.935,71.873,49.927,72.145,49.909,72.425z M53.434,72.496
			c0.009-0.298,0.018-0.605,0.018-0.903c0-2.392-0.387-4.697-1.099-6.853l2.189-0.894l0.817,8.684L53.434,72.496z M74.531,49.642
			L59.675,72.618l-1.556-0.035l-1.134-13.661c-0.079-1.043,0.466-2.042,1.389-2.532l15.005-8
			C74.179,47.968,75.023,48.88,74.531,49.642z M88.472,57.52l7.261,15.423l2.198-0.657l-7.314-15.782
			c1.828-0.727,3.824-1.122,5.907-1.122c8.966,0,16.262,7.273,16.262,16.211s-7.296,16.211-16.262,16.211
			s-16.262-7.273-16.262-16.211C80.262,65.573,83.567,60.315,88.472,57.52z M96.524,89.995c-10.179,0-18.46-8.255-18.46-18.402
			c0-6.861,3.789-12.855,9.388-16.01l0.615,1.157c-5.186,2.936-8.685,8.5-8.685,14.853c0,9.42,7.692,17.087,17.141,17.087
			s17.141-7.667,17.141-17.087s-7.692-17.087-17.141-17.087c-2.215,0-4.334,0.421-6.276,1.201l-0.554-1.201
			c2.11-0.85,4.422-1.314,6.83-1.314c10.179,0,18.46,8.255,18.46,18.402C114.984,81.74,106.703,89.995,96.524,89.995z"/>
	</g>
	<g id="row1">
		<path id="icon:3_2_" style="display:none;fill:#333333;" d="M49.85,40.478c0.76,1.24,1.7,2.83,1.97,3.59l-2.83,0.99
			c-0.21-0.58-1.54-2.79-2.66-4.53c-2.13-0.12-4.42-0.47-4.03-1.44c0.55-1.38,0.33-2.38,2.99-1.94c2.66,0.45,6.75-0.05,7.53,0.39
			c0.77,0.45,1.22,0.64,1.22,1.11C54.04,39.038,51.81,40.147,49.85,40.478z M110.75,72.188c0,10.35-8.42,18.77-18.78,18.77
			c-10.35,0-18.77-8.42-18.77-18.77c0-7.55,4.47-14.07,10.91-17.05l-1.25-3.4l-15.72,15.22c0.68,0.98,1.08,2.19,1.08,3.48
			c0,1.76-0.75,3.36-1.94,4.47l2.66,3.99h2.63v2h-7.09v-2h2.06l-1.93-2.88c-0.76,0.35-1.61,0.54-2.51,0.54
			c-2.89,0-5.32-2.01-5.95-4.71h-0.01l-1.35,0.09c0.01,0.08,0.01,0.17,0.01,0.25c0,10.35-8.42,18.77-18.77,18.77
			c-10.36,0-18.78-8.42-18.78-18.77c0-10.36,8.42-18.78,18.78-18.78c3.24,0,6.29,0.82,8.95,2.28l5.09-8.29l-0.5-1.12l2.74-1.23
			l0.49,1.09l27.72-0.76l-2.93-7.95l10.27,0.64l-0.19,3l-5.68-0.36l4.93,13.39c1.61-0.45,3.3-0.69,5.05-0.69
			C102.33,53.407,110.75,61.827,110.75,72.188z M44.59,60.157l-6.7,10.9l12.77-0.85C50.11,66.068,47.84,62.467,44.59,60.157z
			 M50.8,72.198l-12.79,0.85c-0.33,0.76-1.1,1.3-1.98,1.3c-0.79,0-1.47-0.42-1.85-1.04c0,0-0.01-0.01-0.01-0.02
			c-0.19-0.32-0.3-0.7-0.3-1.1c0-1.2,0.96-2.16,2.16-2.16c0.05,0,0.09,0,0.14,0.01l6.71-10.93c-2.05-1.09-4.38-1.7-6.85-1.7
			c-8.15,0-14.78,6.63-14.78,14.78c0,8.14,6.63,14.77,14.78,14.77C44.17,86.957,50.79,80.337,50.8,72.198z M58.3,65.658l-7.23-16.05
			l-4.38,7.13c4.31,2.99,7.32,7.74,7.97,13.2l1.35-0.09C56.17,68.147,57.03,66.647,58.3,65.658z M60.22,71.568
			c0.2-0.2,0.34-0.44,0.41-0.72v-0.01c0.04-0.13,0.06-0.26,0.06-0.4c0-0.33-0.1-0.64-0.27-0.89c-0.15-0.23-0.36-0.41-0.61-0.53
			c-0.21-0.11-0.45-0.17-0.71-0.17c-0.63,0-1.18,0.36-1.43,0.89h-0.01c-0.1,0.21-0.16,0.45-0.16,0.7c0,0.52,0.24,0.98,0.63,1.27
			c0.27,0.21,0.6,0.33,0.97,0.33C59.54,72.038,59.94,71.858,60.22,71.568z M62.1,69.038c0.33,0,0.63-0.1,0.88-0.27h0.01
			c0.4-0.28,0.68-0.74,0.69-1.26c0.01-0.02,0.01-0.05,0.01-0.07c0-0.88-0.71-1.59-1.59-1.59c-0.14,0-0.28,0.02-0.41,0.05v0.01
			c-0.69,0.17-1.19,0.79-1.19,1.53C60.5,68.318,61.21,69.038,62.1,69.038z M63.69,73.438c0-0.88-0.71-1.59-1.59-1.59
			c-0.09,0-0.18,0.01-0.26,0.02c-0.76,0.12-1.34,0.78-1.34,1.57c0,0.88,0.71,1.6,1.6,1.6c0.57,0,1.07-0.3,1.35-0.76
			C63.6,74.038,63.69,73.748,63.69,73.438z M66.69,70.438c0-0.85-0.67-1.55-1.51-1.58c-0.03-0.01-0.05-0.01-0.08-0.01
			c-0.89,0-1.6,0.71-1.6,1.59v0.04c0,0.12,0.02,0.23,0.05,0.33l0.01,0.03c0.08,0.37,0.31,0.67,0.6,0.9h0.01
			c0.26,0.19,0.58,0.3,0.93,0.3C65.98,72.038,66.69,71.318,66.69,70.438z M82.1,49.688l-0.86-2.34l-27.55,0.77l7.34,16.3
			c0.35-0.07,0.7-0.1,1.07-0.1c1.36,0,2.61,0.45,3.63,1.21L82.1,49.688z M106.75,72.188c0-8.15-6.63-14.78-14.78-14.78
			c-1.26,0-2.49,0.16-3.67,0.46l4.55,12.35c0.76,0.33,1.28,1.09,1.28,1.97c0,1.19-0.96,2.16-2.16,2.16c-1.19,0-2.16-0.97-2.16-2.16
			c0-0.34,0.08-0.67,0.22-0.95l-4.54-12.33c-4.9,2.41-8.29,7.45-8.29,13.28c0,8.14,6.63,14.77,14.77,14.77
			C100.12,86.957,106.75,80.327,106.75,72.188z"/>
		<path id="icon:2_2_" style="display:none;fill:#333333;" d="M103.717,58.365l0.878-1.751c-2.895-1.452-6.02-2.188-9.284-2.188
			c-2.865,0-5.6,0.577-8.076,1.631L79.748,40.58l1.388-1.87c0.08,0.02,0.15,0.02,0.23,0.02c1.038,0,1.877-0.836,1.877-1.87
			c0-1.025-0.839-1.86-1.877-1.86c-1.028,0-1.867,0.835-1.867,1.86c0,0.199,0.03,0.388,0.1,0.567l-2.166,2.934l2.246,4.645v0.01
			c-6.05,12.752-17.38,18.979-19.846,20.202l-7.377-15.905c0.29-0.507,1.827-2.944,3.624-3.173c2.056-0.269,3.205-1.373,1.927-2.009
			c-1.288-0.647-11.62,0.109-13.866,0c-2.236-0.109,0.22,2.865,1.388,2.865c0.849,0,3.274,1.253,4.552,1.95l3.813,8.216
			l-3.983,3.432c-3.803-3.839-9.074-6.167-14.725-6.167c-11.4,0-20.684,9.251-20.684,20.61h2.176C16.906,84.983,25.102,93,35.135,93
			c9.843,0,17.919-7.719,18.448-17.407h3.734c0.28,2.914,2.735,5.182,5.72,5.182c0.779,0,1.517-0.149,2.196-0.428h0.01l2.616,3.919
			l-1.867,0.01v1.989l5.93-0.02v-1.989l-2.855,0.01l-2.935-4.396c1.607-1.015,2.665-2.795,2.665-4.834
			c0-1.154-0.339-2.218-0.928-3.113l15.723-18.829l1.847,3.83c-6.439,3.501-10.811,10.305-10.811,18.113h1.947
			C76.803,84.983,84.999,93,95.032,93c10.183,0,18.468-8.256,18.468-18.402C113.5,67.745,109.766,61.568,103.717,58.365z
			 M35.135,90.016c-8.535,0-15.473-6.913-15.473-15.418s6.938-15.418,15.473-15.418c2.446,0,4.782,0.547,6.938,1.631
			c1.557,0.776,2.935,1.78,4.103,2.984l-9.913,8.514c-0.339-0.169-0.719-0.259-1.128-0.259c-1.418,0-2.556,1.134-2.556,2.546
			c0,1.412,1.138,2.546,2.556,2.546c1.058,0,1.967-0.637,2.356-1.552h13.078C50.059,83.64,43.331,90.016,35.135,90.016z
			 M37.82,73.604l-0.25,0.219c-0.02-0.08-0.05-0.149-0.08-0.219H37.82l9.663-8.306c1.807,2.367,2.895,5.242,3.085,8.306H37.82z
			 M57.476,73.604h-1.657c-0.1-1.442-0.339-2.865-0.739-4.247c-0.789-2.715-2.106-5.182-3.823-7.291l3.514-3.024l5.181,11.16
			C58.734,70.968,57.836,72.181,57.476,73.604z M66.491,70.46c-0.958-0.726-2.156-1.154-3.454-1.154
			c-0.429,0-0.839,0.05-1.238,0.139l-1.118-2.407c2.556-1.253,13.567-7.201,20.095-19.754l1.857,3.83L66.491,70.46z M95.032,90.016
			c-8.535,0-15.473-6.913-15.473-15.418c0-5.779,3.205-10.822,7.926-13.458l5.9,12.215c-0.389,0.458-0.629,1.044-0.629,1.681
			c0,1.412,1.138,2.556,2.556,2.556c1.408,0,2.556-1.144,2.556-2.556c0-1.403-1.148-2.546-2.556-2.546h-0.12l-5.91-12.205
			c1.777-0.716,3.714-1.104,5.75-1.104c2.446,0,4.782,0.547,6.938,1.631c5.261,2.636,8.535,7.918,8.535,13.786
			C110.505,83.103,103.567,90.016,95.032,90.016z"/>
		<path id="icon:1_2_" style="display:none;fill:#333333;" d="M64,80.085c-3.662,0-6.771-2.598-7.391-6.177
			c-0.072-0.393-0.109-0.822-0.109-1.264c0-0.41,0.034-0.819,0.101-1.216c0.293-1.765,1.218-3.364,2.604-4.501
			c0.627-0.525,1.356-0.948,2.157-1.25c1.966-0.736,4.268-0.597,6.15,0.394c0.738,0.383,1.41,0.895,1.987,1.517
			c1.288,1.364,2.002,3.163,2.002,5.056C71.5,76.747,68.136,80.085,64,80.085z M64,68.18c-0.548,0-1.079,0.094-1.578,0.281
			c-0.48,0.181-0.917,0.434-1.295,0.751c-0.839,0.689-1.392,1.645-1.567,2.703c-0.04,0.238-0.06,0.483-0.06,0.73
			c0,0.269,0.021,0.514,0.063,0.748c0.375,2.158,2.24,3.716,4.437,3.716c2.481,0,4.5-2.002,4.5-4.464c0-1.134-0.426-2.21-1.201-3.03
			c-0.351-0.378-0.748-0.681-1.187-0.909C65.448,68.355,64.741,68.18,64,68.18z M94,55.773c-1.7,0-3.35,0.238-4.91,0.685
			l-2.89-7.652l-1.38-3.642l-2.15-5.687h6.04c1.85,0,3.35,1.489,3.35,3.325c0,1.826-1.5,3.315-3.35,3.315v2.977
			c3.5,0,6.35-2.828,6.35-6.292c0-3.473-2.85-6.302-6.35-6.302H78.33l3.28,8.664H51.57l-2.55-5.329c3.28-0.149,6.49-0.486,6.49-1.25
			c0-1.558-13.45-1.37-13.45-1.37c-0.76,0-1.38,0.615-1.38,1.37c0,0.754,0.62,1.36,1.38,1.36c0,0,1.6,0.02,3.69-0.01l3.18,6.649
			l-6.55,10.262c-2.5-1.32-5.36-2.064-8.38-2.064c-9.93,0-18,8.009-18,17.864s8.07,17.864,18,17.864
			c9.41,0,17.16-7.195,17.93-16.345h3.08c-0.09-0.496-0.13-1.002-0.13-1.518c0-0.496,0.04-0.982,0.12-1.459h-3.06
			c-0.42-5.19-3.09-9.746-7.03-12.733l5.54-8.694l7.67,16.028c0.77-0.645,1.65-1.151,2.6-1.508l-7.73-16.137h29.77l0.01,0.03
			l-0.01,0.01L68.09,64.754c0.9,0.466,1.7,1.082,2.38,1.816l13.48-15.224l2.33,6.163C80.2,60.378,76,66.531,76,73.636
			C76,83.491,84.07,91.5,94,91.5s18-8.009,18-17.864S103.93,55.773,94,55.773z M34,86.538c-7.72,0-14-6.232-14-13.894
			c0-7.662,6.28-13.894,14-13.894c2.24,0,4.36,0.526,6.24,1.459l-5.92,9.279c-0.08-0.02-0.17-0.02-0.25-0.02
			c-1.79,0-3.23,1.439-3.23,3.205c0,1.767,1.44,3.206,3.23,3.206c1.24,0,2.32-0.695,2.86-1.717h10.99
			C47.15,81.109,41.2,86.538,34,86.538z M47.92,71.185H36.79l0.07-0.119l5.9-9.249C45.59,64.069,47.52,67.404,47.92,71.185z
			 M94,87.53c-7.72,0-14-6.232-14-13.894c0-5.419,3.14-10.113,7.7-12.405l3.92,10.351c-0.49,0.556-0.78,1.29-0.78,2.084
			c0,1.767,1.44,3.206,3.23,3.206c1.78,0,3.23-1.439,3.23-3.206c0-1.657-1.27-3.027-2.9-3.186l-3.9-10.301
			c1.12-0.288,2.29-0.437,3.5-0.437c7.72,0,14,6.232,14,13.894C108,81.298,101.72,87.53,94,87.53z"/>
	</g>
</g>
</svg>
