<?xml version="1.0" encoding="iso-8859-1"?>
<!-- Generator: Adobe Illustrator 23.0.5, SVG Export Plug-In . SVG Version: 6.00 Build 0)  -->
<svg version="1.1" xmlns="http://www.w3.org/2000/svg" xmlns:xlink="http://www.w3.org/1999/xlink" x="0px" y="0px"
	 viewBox="0 0 492 492" style="enable-background:new 0 0 492 492;" xml:space="preserve">
<g id="Master_Layer_2">
</g>
<g id="Layer_1">
	<g>
		<g>
			<g>
				<g>
					<g>
						<g>
							<g>
								<path style="fill-rule:evenodd;clip-rule:evenodd;fill:#212121;" d="M229.877,397.136h-0.024l-97.584-0.024
									c-3.192,0-5.76-2.592-5.76-5.76c0-3.192,2.568-5.76,5.76-5.76l0,0l97.584,0.024h0.024c21.528,0,42.576-6,60.864-17.352
									l122.256-75.936c3.48-2.592,5.424-5.52,5.952-8.952c0.576-3.72-0.96-7.224-4.056-9.384
									c-2.784-1.944-6.696-2.76-11.352-2.424c-6.144,0.456-13.272,2.904-21.12,7.272c-0.984,0.576-9.576,5.976-23.784,14.928
									c-13.44,8.472-33.792,21.288-60.768,38.256c-2.688,1.704-6.24,0.888-7.944-1.8c-1.704-2.688-0.888-6.24,1.8-7.944
									c26.976-16.944,47.304-29.76,60.744-38.232c18.144-11.424,23.4-14.76,24.312-15.24c9.336-5.184,18.024-8.088,25.872-8.688
									c7.32-0.552,13.824,0.984,18.792,4.44c6.696,4.656,10.104,12.552,8.88,20.568c-1.008,6.552-4.608,12.168-10.704,16.632
									c-0.072,0.048-0.12,0.096-0.192,0.12c-0.072,0.048-0.12,0.072-0.192,0.12l0,0l-122.424,76.032
									C276.701,390.536,253.541,397.136,229.877,397.136z"/>
							</g>
						</g>
						<g>
							<g>
								<path style="fill-rule:evenodd;clip-rule:evenodd;fill:#212121;" d="M274.709,349.472h-58.2c-3.192,0-5.76-2.568-5.76-5.76
									s2.568-5.76,5.76-5.76h58.2c7.896,0,14.352-6.168,14.712-14.04c0.192-4.008-1.248-7.824-4.056-10.752
									c-2.88-3.024-6.768-4.68-10.968-4.68h-71.952c-0.024,0-0.024,0-0.048,0c-4.968-0.048-16.584-0.144-28.656,2.52
									c-13.344,2.952-24.072,8.496-31.872,16.512c-1.776,1.824-3.432,3.792-4.944,5.856c-1.872,2.568-5.472,3.144-8.04,1.272
									c-2.568-1.872-3.144-5.472-1.272-8.04c1.824-2.52,3.84-4.896,6-7.104c9.408-9.648,22.056-16.272,37.656-19.728
									c11.832-2.616,22.896-2.856,31.224-2.784l71.928,0c7.248,0,14.28,3,19.296,8.256c4.992,5.232,7.56,12.072,7.224,19.248
									C300.269,338.504,288.749,349.472,274.709,349.472z"/>
							</g>
						</g>
					</g>
					<g>
						<g>
							<path style="fill-rule:evenodd;clip-rule:evenodd;fill:#212121;" d="M132.245,405.344H67.733
								c-3.192,0-5.784-2.592-5.784-5.784v-86.784c0-3.192,2.592-5.784,5.784-5.784h64.512c3.192,0,5.784,2.592,5.784,5.784v86.784
								C138.029,402.752,135.437,405.344,132.245,405.344L132.245,405.344z M73.469,393.824h53.04v-75.312h-53.04V393.824z"/>
						</g>
					</g>
				</g>
				<g>
					<g>
						<path style="fill-rule:evenodd;clip-rule:evenodd;fill:#212121;" d="M254.285,262.136c-11.712,0-23.088-2.304-33.816-6.84
							c-10.344-4.392-19.632-10.656-27.6-18.648c-7.968-7.992-14.232-17.28-18.6-27.648c-4.536-10.728-6.816-22.128-6.816-33.864
							c0-11.736,2.304-23.136,6.816-33.864c4.368-10.368,10.632-19.656,18.6-27.648c7.968-7.992,17.256-14.256,27.6-18.648
							c10.704-4.536,22.08-6.84,33.816-6.84c11.712,0,23.088,2.304,33.816,6.84c10.344,4.392,19.632,10.656,27.6,18.648
							c7.968,7.992,14.232,17.28,18.6,27.648c4.536,10.728,6.816,22.128,6.816,33.864c0,11.736-2.304,23.136-6.816,33.864
							c-4.368,10.368-10.632,19.656-18.6,27.648c-7.968,7.992-17.256,14.256-27.6,18.648
							C277.373,259.856,265.997,262.136,254.285,262.136L254.285,262.136z M254.285,99.68c-20.112,0-39.024,7.848-53.256,22.104
							C186.797,136.04,178.973,155,178.973,175.16s7.848,39.12,22.056,53.376c14.232,14.256,33.144,22.104,53.256,22.104
							c20.112,0,39.024-7.848,53.256-22.104s22.056-33.216,22.056-53.376s-7.848-39.12-22.056-53.376
							C293.309,107.528,274.397,99.68,254.285,99.68z"/>
					</g>
				</g>
				<g>
					<g>
						<g>
							<path style="fill-rule:evenodd;clip-rule:evenodd;fill:#212121;" d="M254.285,218.528c-12.528,0-23.472-7.536-26.616-18.36
								c-0.888-3.048,0.864-6.24,3.912-7.152c3.048-0.888,6.24,0.864,7.152,3.912c1.704,5.832,8.232,10.056,15.576,10.056
								c8.808,0,15.984-5.856,15.984-13.056c0-2.184,0-8.856-17.352-13.2c-7.104-1.656-12.936-4.176-17.304-7.512
								c-5.808-4.44-8.856-10.272-8.856-16.896c0-13.536,12.336-24.576,27.504-24.576c12.432,0,23.352,7.464,26.568,18.168
								c0.912,3.048-0.816,6.264-3.864,7.176c-3.048,0.912-6.264-0.816-7.176-3.864c-1.752-5.856-8.16-9.96-15.528-9.96
								c-8.808,0-15.984,5.856-15.984,13.056c0,8.016,10.824,11.712,17.28,13.2c0.024,0,0.072,0.024,0.096,0.024
								c7.536,1.896,13.272,4.392,17.52,7.68c5.616,4.32,8.592,10.104,8.592,16.728
								C281.789,207.512,269.453,218.528,254.285,218.528z"/>
						</g>
					</g>
					<g>
						<g>
							<path style="fill-rule:evenodd;clip-rule:evenodd;fill:#212121;" d="M254.285,229.712c-3.192,0-5.76-2.568-5.76-5.76v-97.584
								c0-3.192,2.568-5.76,5.76-5.76s5.76,2.568,5.76,5.76v97.584C260.045,227.12,257.453,229.712,254.285,229.712z"/>
						</g>
					</g>
				</g>
			</g>
		</g>
	</g>
</g>
</svg>
